<svg width="38" height="35" viewBox="0 0 38 35" fill="none" xmlns="http://www.w3.org/2000/svg">
<g clip-path="url(#clip0_156_974)">
<path d="M17.9027 8.02282C20.734 8.02282 23.4019 9.16741 25.357 10.9567V10.962C25.357 10.1027 25.9909 9.45276 26.8671 9.45276H27.0896C28.4722 9.45276 28.7492 10.6417 28.7492 11.0169L28.755 24.3705C28.6588 25.2455 29.7459 25.6979 30.3497 25.1356C32.6966 22.9342 35.5093 13.8071 28.8883 8.52272C22.7135 3.59032 14.4259 4.40516 10.0196 7.17416C5.33633 10.1249 2.34279 16.6426 5.25056 22.7682C8.42606 29.4466 17.504 31.4388 22.907 29.4519C25.6421 28.4447 26.903 31.8119 24.0601 32.9142C19.7755 34.5808 7.835 34.4107 2.25818 25.6038C-1.50953 19.6547 -1.31019 9.1896 8.68682 3.76787C16.3277 -0.382448 26.4093 0.767424 32.4868 6.55378C38.8378 12.6086 38.4704 23.9371 32.2701 28.3411C29.462 30.3439 25.2921 28.3961 25.3222 25.478L25.2909 24.5269C23.3358 26.2929 20.734 27.3286 17.9027 27.3286C12.3015 27.3286 7.37026 22.8306 7.37026 17.728C7.37026 12.5705 12.3015 8.02493 17.9027 8.02493V8.02282ZM24.9479 17.3592C24.7358 13.621 21.6936 11.3699 18.0174 11.3699H17.8784C13.6413 11.3699 11.2875 14.4137 11.2875 17.8644C11.2875 21.7336 14.1304 24.177 17.861 24.177C22.025 24.177 24.759 21.3985 24.9583 18.1117L24.9479 17.3592Z" fill="white"/>
</g>
<defs>
<clipPath id="clip0_156_974">
<rect width="37.0861" height="33.8198" fill="white" transform="translate(0 0.601562)"/>
</clipPath>
</defs>
</svg>
