<svg width="34" height="33" viewBox="0 0 34 33" fill="none" xmlns="http://www.w3.org/2000/svg">
<g clip-path="url(#clip0_156_968)">
<path fill-rule="evenodd" clip-rule="evenodd" d="M27.0822 0.136719H6.38683C2.95793 0.136719 0.178223 2.8666 0.178223 6.23403V26.5584C0.178223 29.9258 2.95793 32.6557 6.38683 32.6557H27.0822C30.5111 32.6557 33.2908 29.9258 33.2908 26.5584V6.23403C33.2908 2.8666 30.5111 0.136719 27.0822 0.136719ZM26.2413 17.6499H23.1435V28.9118H17.9675V17.6499H15.959V13.8546H17.9675V11.4371C17.9675 8.27075 19.3094 6.38807 23.1087 6.38807H26.9602V10.1663H24.7207C23.2394 10.1663 23.1435 10.7097 23.1435 11.7195L23.1392 13.8503H26.6595L26.2369 17.6456L26.2413 17.6499Z" fill="white"/>
</g>
<defs>
<clipPath id="clip0_156_968">
<rect width="33.1125" height="32.519" fill="white" transform="translate(0.178223 0.136719)"/>
</clipPath>
</defs>
</svg>
