<svg width="39" height="38" viewBox="0 0 39 38" fill="none" xmlns="http://www.w3.org/2000/svg">
<path d="M19.6607 2.81055C10.3844 2.80686 2.87109 10.1818 2.87109 19.2845C2.87109 26.4826 7.57114 32.6014 14.1167 34.8485C14.9982 35.0659 14.8631 34.4507 14.8631 34.0307V31.1758C9.77299 31.7615 9.56668 28.4535 9.22534 27.9009C8.53515 26.7442 6.90345 26.4495 7.39109 25.8969C8.55015 25.3112 9.73173 26.0443 11.1009 28.0298C12.0911 29.4702 14.0229 29.2271 15.0019 28.9876C15.2157 28.1219 15.6734 27.3483 16.3035 26.7479C11.0296 25.8195 8.83148 22.6588 8.83148 18.9014C8.83148 17.0779 9.4429 15.4018 10.6432 14.0498C9.87802 11.8211 10.7145 9.91291 10.827 9.62926C13.0064 9.4377 15.272 11.1617 15.4483 11.298C16.6861 10.9702 18.1003 10.797 19.6832 10.797C21.2737 10.797 22.6915 10.9775 23.9406 11.3091C24.3645 10.9923 26.4651 9.51138 28.4906 9.69188C28.5994 9.97553 29.4171 11.8395 28.6969 14.0388C29.9123 15.3944 30.5312 17.0853 30.5312 18.9124C30.5312 22.6773 28.3181 25.8416 23.0291 26.7552C23.4821 27.1928 23.8418 27.7145 24.0872 28.2901C24.3326 28.8657 24.4587 29.4835 24.4583 30.1075V34.2518C24.4883 34.5833 24.4583 34.9112 25.0209 34.9112C31.664 32.7119 36.4466 26.5489 36.4466 19.2882C36.4466 10.1818 28.9295 2.81055 19.6607 2.81055Z" fill="white"/>
</svg>
