<svg width="40" height="38" viewBox="0 0 40 38" fill="none" xmlns="http://www.w3.org/2000/svg">
<path d="M20.1334 0.753906C9.59961 0.753906 1.06055 8.86041 1.06055 18.8606C1.06055 28.8607 9.59961 36.9672 20.1334 36.9672C30.6671 36.9672 39.2062 28.8607 39.2062 18.8606C39.2062 8.86041 30.6671 0.753906 20.1334 0.753906ZM15.4645 26.3654H11.6023V14.5659H15.4645V26.3654ZM13.5095 13.1174C12.2897 13.1174 11.5009 12.2969 11.5009 11.2822C11.5009 10.2467 12.3135 9.45077 13.5592 9.45077C14.8049 9.45077 15.5678 10.2467 15.5917 11.2822C15.5917 12.2969 14.8049 13.1174 13.5095 13.1174ZM29.5705 26.3654H25.7082V19.8263C25.7082 18.3042 25.1479 17.2706 23.7513 17.2706C22.6844 17.2706 22.0506 17.9703 21.7705 18.6437C21.6672 18.8832 21.6413 19.2227 21.6413 19.5603V26.3635H17.7771V18.3287C17.7771 16.8556 17.7274 15.624 17.6758 14.564H21.0314L21.2082 16.203H21.2857C21.7943 15.4335 23.04 14.2981 25.1241 14.2981C27.6652 14.2981 29.5705 15.9145 29.5705 19.3887V26.3654Z" fill="white"/>
</svg>
