<svg width="34" height="33" viewBox="0 0 34 33" fill="none" xmlns="http://www.w3.org/2000/svg">
<g clip-path="url(#clip0_156_966)">
<path fill-rule="evenodd" clip-rule="evenodd" d="M28.872 4.86245C25.7732 1.81665 21.6521 0.138431 17.2614 0.136719C8.21465 0.136719 0.851691 7.36494 0.848071 16.2496C0.846864 19.0896 1.60269 21.8619 3.03893 24.3055L0.710449 32.6557L9.41141 30.415C11.8087 31.6987 14.5078 32.3752 17.2549 32.3763H17.2616C26.3075 32.3763 33.6711 25.1472 33.6747 16.2625C33.6765 11.9568 31.9709 7.90824 28.872 4.86245ZM17.2616 29.6548H17.256C14.8082 29.6538 12.4072 29.0082 10.3127 27.7879L9.81449 27.4976L4.65128 28.8274L6.02947 23.8851L5.70506 23.3784C4.33948 21.2459 3.6182 18.7812 3.61928 16.2506C3.62227 8.86604 9.74212 2.85825 17.267 2.85825C20.9108 2.85961 24.336 4.25458 26.9117 6.78613C29.4873 9.31769 30.905 12.6827 30.9036 16.2614C30.9005 23.6465 24.7807 29.6548 17.2616 29.6548ZM24.7445 19.624C24.3344 19.4224 22.3181 18.4484 21.9422 18.314C21.5663 18.1796 21.2929 18.1125 21.0195 18.5156C20.7461 18.9186 19.9601 19.8255 19.7208 20.0942C19.4817 20.363 19.2424 20.3966 18.8323 20.195C18.4222 19.9935 17.1008 19.5683 15.5343 18.1966C14.3152 17.1291 13.4921 15.8104 13.2528 15.4074C13.0136 15.0043 13.2274 14.7863 13.4327 14.5857C13.6172 14.4052 13.8428 14.1154 14.0479 13.8803C14.2529 13.6451 14.3212 13.4772 14.4579 13.2085C14.5946 12.9398 14.5263 12.7046 14.4238 12.5031C14.3212 12.3016 13.5011 10.3198 13.1593 9.51364C12.8264 8.72852 12.4883 8.83475 12.2366 8.82245C11.9976 8.81078 11.7239 8.80828 11.4506 8.80828C11.1772 8.80828 10.7329 8.90906 10.3569 9.31211C9.98103 9.71521 8.92162 10.6893 8.92162 12.6711C8.92162 14.6528 10.3911 16.5674 10.5962 16.8361C10.8012 17.1048 13.488 21.1717 17.602 22.9158C18.5805 23.3306 19.3444 23.5783 19.94 23.7639C20.9225 24.0703 21.8165 24.0271 22.5231 23.9234C23.3111 23.8078 24.9495 22.9494 25.2913 22.0089C25.6331 21.0684 25.6331 20.2622 25.5305 20.0943C25.428 19.9263 25.1546 19.8255 24.7445 19.624Z" fill="white"/>
</g>
<defs>
<clipPath id="clip0_156_966">
<rect width="32.9669" height="32.519" fill="white" transform="translate(0.709473 0.136719)"/>
</clipPath>
</defs>
</svg>
